# Blender v2.83.16 OBJ File: ''
# www.blender.org
mtllib spindle-1-annotations.mtl
o targets_spindle-1.001
v 0.027551 0.217369 -0.012393
v 0.029855 0.214027 -0.007159
v 0.034836 0.219750 -0.014079
v 0.037140 0.216409 -0.008845
v -0.022962 0.254548 -0.001506
v -0.022184 0.249268 0.001909
v -0.030652 0.254423 0.000051
v -0.029874 0.249143 0.003467
v -0.020544 0.383282 -0.020614
v -0.022482 0.380548 -0.016238
v -0.027827 0.385599 -0.022393
v -0.029765 0.382866 -0.018017
v 0.023199 0.532163 -0.043996
v 0.023612 0.529154 -0.040628
v 0.031012 0.532731 -0.044448
v 0.031426 0.529722 -0.041079
v -0.015525 0.733394 -0.074304
v -0.014918 0.731287 -0.072842
v -0.023157 0.732053 -0.073063
v -0.022549 0.729946 -0.071601
v -0.015658 0.785206 -0.085986
v -0.015583 0.783462 -0.084422
v -0.023494 0.785245 -0.085562
v -0.023418 0.783501 -0.083999
v -0.015650 0.853206 -0.101061
v -0.015694 0.851770 -0.099614
v -0.023494 0.853416 -0.101093
v -0.023539 0.851981 -0.099645
vt 0.500000 1.333390
vt 0.500000 1.066710
vt 0.750000 1.066710
vt 0.750000 1.333390
vt 0.750000 1.114910
vt 0.750000 0.836179
vt 1.000000 0.836179
vt 1.000000 1.114910
vt 0.750000 1.281850
vt 0.750000 0.961389
vt 1.000000 0.961389
vt 1.000000 1.281850
vt 0.500000 1.557590
vt 0.500000 1.168190
vt 0.750000 1.168190
vt 0.750000 1.557590
vt 0.750000 2.010830
vt 0.750000 1.340560
vt 1.000000 1.340560
vt 1.000000 2.010830
vt 0.750000 2.261330
vt 0.750000 1.507560
vt 1.000000 1.507560
vt 1.000000 2.261330
vt 0.750000 2.599030
vt 0.750000 1.732690
vt 1.000000 1.732690
vt 1.000000 2.599030
vn -0.1314 0.8083 0.5739
vn 0.1568 0.5526 0.8185
vn 0.1220 0.8166 0.5642
vn -0.0156 0.7448 0.6672
vn 0.0317 0.5758 0.8170
vn 0.0435 0.6679 0.7430
vn 0.0162 0.7097 0.7044
usemtl Grapefruit_Bark
s 1
f 3/1/1 1/2/1 2/3/1 4/4/1
f 8/5/2 6/6/2 5/7/2 7/8/2
f 12/9/3 10/10/3 9/11/3 11/12/3
f 15/13/4 13/14/4 14/15/4 16/16/4
f 20/17/5 18/18/5 17/19/5 19/20/5
f 24/21/6 22/22/6 21/23/6 23/24/6
f 28/25/7 26/26/7 25/27/7 27/28/7
