# Blender v2.79 (sub 0) OBJ File: ''
# www.blender.org
mtllib ufotree-annotations.mtl
o Palo_Verde_Trunk.001
v -0.312686 1.658090 -0.225185
v -0.310470 1.665160 -0.225444
v -0.348939 1.669630 -0.219757
v -0.346723 1.676710 -0.220016
v -0.265190 2.294450 -0.431999
v -0.263562 2.298690 -0.434089
v -0.291403 2.297390 -0.446453
v -0.289775 2.301630 -0.448544
v -0.166743 1.905740 -0.289179
v -0.166516 1.908770 -0.294614
v -0.140350 1.912500 -0.284307
v -0.140123 1.915530 -0.289743
v -0.342867 1.232660 -0.149933
v -0.340965 1.237290 -0.157582
v -0.375047 1.232630 -0.157950
v -0.373146 1.237260 -0.165599
v 0.988882 2.013160 -0.080579
v 0.987097 2.017300 -0.081200
v 1.014460 2.026040 -0.068340
v 1.012680 2.030170 -0.068961
v 1.072170 1.611910 -0.031916
v 1.069480 1.617410 -0.034093
v 1.106920 1.625720 -0.040119
v 1.104220 1.631220 -0.042296
v 0.427098 1.620450 -0.179348
v 0.424641 1.627160 -0.182117
v 0.462991 1.629630 -0.188988
v 0.460534 1.636330 -0.191757
v 0.388752 2.184860 -0.286039
v 0.387416 2.189750 -0.286601
v 0.415774 2.193590 -0.274405
v 0.414437 2.198480 -0.274967
v 0.259147 1.866730 -0.248808
v 0.259430 1.869840 -0.254227
v 0.224758 1.858060 -0.255581
v 0.225041 1.861170 -0.260999
v 0.314784 1.360770 -0.108800
v 0.316339 1.365530 -0.116426
v 0.292340 1.359170 -0.114372
v 0.293895 1.363940 -0.121998
v -0.913918 1.649910 -0.296218
v -0.913525 1.656150 -0.297116
v -0.950251 1.653340 -0.288182
v -0.949858 1.659590 -0.289079
v 0.884798 1.819160 -0.085850
v 0.886450 1.822260 -0.090019
v 0.850166 1.824410 -0.095681
v 0.851818 1.827510 -0.099849
v 0.474309 1.224300 -0.032567
v 0.474957 1.229160 -0.040792
v 0.511468 1.232600 -0.024736
v 0.512115 1.237460 -0.032962
v -0.959072 2.176100 -0.487910
v -0.957638 2.179910 -0.489731
v -0.985701 2.179660 -0.501434
v -0.984268 2.183470 -0.503254
v -0.827545 1.887410 -0.365920
v -0.826829 1.890230 -0.370493
v -0.801651 1.890810 -0.359768
v -0.800934 1.893630 -0.364341
v -0.829196 1.259330 -0.219093
v -0.827140 1.263460 -0.225268
v -0.863563 1.261620 -0.229004
v -0.861507 1.265750 -0.235179
vt 0.500000 0.076866
vt 0.500000 0.115299
vt 0.250000 0.115299
vt 0.250000 0.076866
vt 1.000000 0.060156
vt 0.750000 0.060156
vt 0.750000 0.090234
vt 1.000000 0.090234
vt 1.000000 0.055351
vt 1.000000 0.083026
vt 0.750000 0.083026
vt 0.750000 0.055351
vt 0.750000 0.066328
vt 0.750000 0.099492
vt 0.500000 0.099492
vt 0.500000 0.066328
vt 0.500000 0.062283
vt 0.250000 0.062283
vt 0.250000 0.093424
vt 0.500000 0.093424
vt 1.000000 0.076563
vt 1.000000 0.114844
vt 0.750000 0.114844
vt 0.750000 0.076563
vt 1.000000 0.076563
vt 1.000000 0.114844
vt 0.750000 0.114844
vt 0.750000 0.076563
vt 0.500000 0.061372
vt 0.250000 0.061372
vt 0.250000 0.092057
vt 0.500000 0.092057
vt 0.750000 0.072213
vt 0.750000 0.108319
vt 0.500000 0.108319
vt 0.500000 0.072213
vt 0.750000 0.046359
vt 0.750000 0.069538
vt 0.500000 0.069538
vt 0.500000 0.046359
vt 0.500000 0.074740
vt 0.500000 0.112109
vt 0.250000 0.112109
vt 0.250000 0.074740
vt 0.750000 0.072761
vt 0.750000 0.109142
vt 0.500000 0.109142
vt 0.500000 0.072761
vt 1.000000 0.077739
vt 1.000000 0.116608
vt 0.750000 0.116608
vt 0.750000 0.077739
vt 1.000000 0.060156
vt 0.750000 0.060156
vt 0.750000 0.090234
vt 1.000000 0.090234
vt 1.000000 0.053663
vt 1.000000 0.080494
vt 0.750000 0.080494
vt 0.750000 0.053663
vt 0.750000 0.071681
vt 0.750000 0.107522
vt 0.500000 0.107522
vt 0.500000 0.071681
vn 0.1452 -0.0093 0.9894
vn 0.1449 -0.0092 0.9894
vn -0.3667 0.5208 0.7709
vn -0.3665 0.5211 0.7708
vn -0.2988 0.8388 0.4551
vn -0.2990 0.8389 0.4548
vn -0.1232 0.8622 0.4913
vn -0.4139 -0.0419 0.9093
vn -0.4140 -0.0415 0.9093
vn 0.0605 0.3931 0.9175
vn 0.0605 0.3928 0.9176
vn 0.1338 0.4198 0.8977
vn -0.3948 -0.0023 0.9188
vn -0.3014 0.8336 0.4630
vn -0.3013 0.8337 0.4628
vn -0.1830 0.8501 0.4939
vn 0.2255 0.1247 0.9662
vn -0.0433 0.8098 0.5850
vn -0.2857 0.8348 0.4707
vn -0.2857 0.8349 0.4705
vn -0.3358 0.5060 0.7945
vn -0.3361 0.5059 0.7944
vn -0.3358 0.5057 0.7946
vn -0.2262 0.8445 0.4854
vn -0.0970 0.8419 0.5308
usemtl Palo_Verde_Trunk
s 1
f 2/1/1 4/2/1 3/3/1 1/4/2
f 5/5/3 6/6/3 8/7/3 7/8/4
f 9/9/5 11/10/6 12/11/5 10/12/5
f 14/13/7 16/14/7 15/15/7 13/16/7
f 18/17/8 17/18/9 19/19/8 20/20/8
f 21/21/10 23/22/11 24/23/11 22/24/11
f 25/25/12 27/26/12 28/27/12 26/28/12
f 30/29/13 29/30/13 31/31/13 32/32/13
f 34/33/14 36/34/15 35/35/15 33/36/15
f 38/37/16 40/38/16 39/39/16 37/40/16
f 42/41/17 44/42/17 43/43/17 41/44/17
f 46/45/18 48/46/18 47/47/18 45/48/18
f 49/49/19 51/50/20 52/51/19 50/52/19
f 53/53/21 54/54/22 56/55/23 55/56/21
f 57/57/24 59/58/24 60/59/24 58/60/24
f 62/61/25 64/62/25 63/63/25 61/64/25
